<svg xmlns="http://www.w3.org/2000/svg" viewBox="0 0 24 24" fill="white" width="32" height="32">
  <path d="M19.502 5.636l-2.217-2.889c-.274-.357-.671-.568-1.095-.568h-8.38c-.424 0-.821.211-1.095.568l-2.217 2.889c-.306.398-.498.88-.498 1.385v12.47c0 1.32 1.145 2.39 2.56 2.39h10.88c1.414 0 2.56-1.07 2.56-2.39v-12.47c0-.506-.192-.987-.498-1.385zm-7.502 12.248c-.668 0-1.277-.27-1.714-.713-.438-.443-.75-1.007-.786-1.643v-6.625c0-.202.158-.366.355-.366.197 0 .355.164.355.366v6.625c.03.488.255.953.612 1.316.358.364.818.592 1.331.623.973.056 1.79-.704 1.866-1.69.037-.46-.078-.917-.33-1.284-.251-.368-.613-.643-1.043-.766-.214-.061-.36-.266-.36-.492v-4.332c0-.202.158-.366.355-.366.197 0 .355.164.355.366v4.332c0 .09.051.174.134.217.61.177 1.122.553 1.443 1.036.321.483.467 1.058.425 1.631-.081 1.188-1.078 2.122-2.29 2.057-.237-.014-.471-.059-.697-.141-.262-.096-.541-.148-.829-.148zm1.005-11.589h-2.01c-.197 0-.355-.164-.355-.366s.158-.366.355-.366h2.01c.197 0 .355.164.355.366s-.158.366-.355.366z"/>
</svg>
