<svg xmlns="http://www.w3.org/2000/svg" viewBox="0 0 512 512" width="32" height="32">
  <!-- Gear/cog border in blue -->
  <path fill="#1e88e5" d="M462.3 192.1c-1.3-10.3-2.7-20.7-3.7-31-2.2-20.3-18.6-36.8-38.9-39.2-4.8-.6-9.8-0.6-14.6-2-4.1-1.1-8-3.9-11.2-6.9-3.3-3.3-6.1-7.1-7.3-11.5-1.5-5.3-1.3-10.9-2-16.2-2-17.8-14.2-32.9-31.2-38-8-2.4-16.4-3.5-24.6-5.1-10-1.9-18.3-8.6-22.8-17.6-1.8-3.5-2.9-7.3-4.8-10.7-2-3.8-4.5-6.8-7.5-9.8-10.6-10.4-27.5-13.6-42-8.2-4.1 1.6-8 3.6-12.2 4.7-4.5 1.2-9.2 1.4-13.9 1-4.5-.5-9-1.2-13.5-1.8-11.7-1.6-23.9 1.7-32.7 9.5-5 4.4-8.2 10.1-11.5 15.6-2.8 4.6-6.3 8.1-10.8 10.4-5.9 3-12.5 3.8-19 4.5-21 2.2-37.9 19-39.9 40.1-.7 8.1-1.2 16.2-2 24.3-1 10.1-8 18.6-17.8 22.6-3.1 1.3-6.4 2-9.3 3.4-4.8 2.3-9 5.4-12.2 9.5-10.2 12.7-12.4 30.7-5.3 45.1 2 4.1 4.3 7.9 5.8 12.3 3.6 10.8-.7 22-10 28.4-4.1 2.8-8.7 5-12.9 7.8-4 2.8-7.2 6.5-9.8 10.6-8.2 13.3-8 30.5.4 43.6 3.9 6 9.3 9.9 14.7 14.1 7.3 5.7 10.9 14.5 9.4 23.5-.7 4.7-2.4 9.2-3.5 13.9-1 4.4-1.8 8.8-1.2 13.3 1.8 13.5 10.4 25.4 22.6 31.2 6 2.9 12.8 3.5 19.3 4.8 10.3 2 18.6 9.2 22.8 18.9 1.7 4 2.7 8.4 4.4 12.3 1.8 4.1 4.9 7.5 7.9 10.5 10.8 10.6 28 13.5 42.4 7.7 4.3-1.7 8.3-4 12.8-5.4 8.6-2.7 18-1.1 25.3 4.4 3.5 2.7 6.3 6 9.8 8.5 3.8 2.7 8 4.3 12.4 5.5 14 3.7 29.4-.1 40-10.5 4.7-4.6 7.5-10.6 10.7-16.1 2.4-4.2 5.3-7.7 9.1-10.1 5-3.1 10.8-4.2 16.5-5.1 9.3-1.5 18.3-3.9 25.6-10.3 7.5-6.6 12.1-15.9 13.3-25.8.7-6.1.4-12.3 1.2-18.5 1.1-8.2 6.5-15.5 14.1-19.3 5.6-2.7 11.8-4 17.5-6.5 5-2.1 9.2-5.6 12.9-9.8 10-11.3 12.7-27.9 6.6-41.8-2.2-5.1-5.8-9.3-8.5-14-3-5.4-3.8-11.5-2.7-17.5 1.2-6.1 3.7-11.9 5.3-18 1.7-6.6 1.3-13.6-.3-20.2z"/>

  <!-- White circle background for text -->
  <circle cx="256" cy="256" r="140" fill="white"/>

  <!-- Inner gear teeth decorative elements in light blue -->
  <path fill="#90caf9" d="M256 140c-8.3 0-15-6.7-15-15v-30c0-8.3 6.7-15 15-15s15 6.7 15 15v30c0 8.3-6.7 15-15 15zm-84.9 24.1c-5.9-5.9-5.9-15.4 0-21.2l21.2-21.2c5.9-5.9 15.4-5.9 21.2 0 5.9 5.9 5.9 15.4 0 21.2l-21.2 21.2c-5.9 5.9-15.4 5.9-21.2 0zm-49 84.9c0-8.3 6.7-15 15-15h30c8.3 0 15 6.7 15 15s-6.7 15-15 15h-30c-8.3 0-15-6.7-15-15zm24.1 84.9c-5.9-5.9-5.9-15.4 0-21.2l21.2-21.2c5.9-5.9 15.4-5.9 21.2 0 5.9 5.9 5.9 15.4 0 21.2l-21.2 21.2c-5.9 5.9-15.4 5.9-21.2 0zm84.9 49c-8.3 0-15-6.7-15-15v-30c0-8.3 6.7-15 15-15s15 6.7 15 15v30c0 8.3-6.7 15-15 15zm84.9-24.1c-5.9 5.9-15.4 5.9-21.2 0l-21.2-21.2c-5.9-5.9-5.9-15.4 0-21.2 5.9-5.9 15.4-5.9 21.2 0l21.2 21.2c5.9 5.9 5.9 15.4 0 21.2zm49-84.9c0 8.3-6.7 15-15 15h-30c-8.3 0-15-6.7-15-15s6.7-15 15-15h30c8.3 0 15 6.7 15 15zm-24.1-84.9c5.9 5.9 5.9 15.4 0 21.2l-21.2 21.2c-5.9 5.9-15.4 5.9-21.2 0-5.9-5.9-5.9-15.4 0-21.2l21.2-21.2c5.9-5.9 15.4-5.9 21.2 0z"/>

  <!-- MST text in dark gray -->
  <text x="256" y="290" font-family="Arial, sans-serif" font-size="110" font-weight="bold" fill="#333333" text-anchor="middle">MST</text>
</svg>
